<mxfile>
    <diagram id="6ka7nyKOiapZ_2Z9rA01" name="Page-1">
        <mxGraphModel dx="923" dy="860" grid="1" gridSize="10" guides="1" tooltips="1" connect="1" arrows="1" fold="1" page="1" pageScale="1" pageWidth="1169" pageHeight="827" math="0" shadow="0">
            <root>
                <mxCell id="0"/>
                <mxCell id="1" parent="0"/>
                <mxCell id="14" value="" style="rounded=0;orthogonalLoop=1;jettySize=auto;html=1;fontSize=32;shape=link;" parent="1" source="2" target="13" edge="1">
                    <mxGeometry relative="1" as="geometry"/>
                </mxCell>
                <mxCell id="2" value="KENDA-1" style="whiteSpace=wrap;html=1;arcSize=12;fillColor=#FFE45E;strokeColor=#FF6392;fontColor=#5AA9E6;rounded=1;" parent="1" vertex="1">
                    <mxGeometry x="490" y="280" width="120" height="60" as="geometry"/>
                </mxCell>
                <mxCell id="6" value="" style="shape=flexArrow;endArrow=classic;html=1;entryX=0;entryY=0.25;entryDx=0;entryDy=0;endWidth=23;endSize=6.24;width=9;labelBackgroundColor=none;horizontal=1;exitX=1;exitY=1;exitDx=0;exitDy=0;strokeColor=#FF6392;fontColor=#5AA9E6;" parent="1" source="7" target="2" edge="1">
                    <mxGeometry x="-0.1342" y="30" width="50" height="50" relative="1" as="geometry">
                        <mxPoint x="370" y="280" as="sourcePoint"/>
                        <mxPoint x="390" y="290" as="targetPoint"/>
                        <mxPoint as="offset"/>
                    </mxGeometry>
                </mxCell>
                <mxCell id="7" value="Overwrite:&lt;br&gt;Obs ATAB File 24h&lt;br&gt;Obs&amp;nbsp;ATAB File 120h" style="whiteSpace=wrap;html=1;fillColor=#FFE45E;strokeColor=#FF6392;fontColor=#5AA9E6;rounded=1;" parent="1" vertex="1">
                    <mxGeometry x="250" y="220" width="120" height="60" as="geometry"/>
                </mxCell>
                <mxCell id="8" value="CRON Job&lt;br&gt;dwh_retrieve&lt;br&gt;Hourly Retrieval&lt;br&gt;for each species" style="shape=flexArrow;endArrow=classic;html=1;entryX=1;entryY=0;entryDx=0;entryDy=0;endWidth=23;endSize=6.24;width=9;labelBackgroundColor=none;horizontal=1;exitX=0;exitY=0.5;exitDx=0;exitDy=0;strokeColor=#FF6392;fontColor=#5AA9E6;" parent="1" source="9" target="7" edge="1">
                    <mxGeometry x="0.2459" y="-55" width="50" height="50" relative="1" as="geometry">
                        <mxPoint x="365" y="220" as="sourcePoint"/>
                        <mxPoint x="440" y="150" as="targetPoint"/>
                        <mxPoint as="offset"/>
                    </mxGeometry>
                </mxCell>
                <mxCell id="9" value="DWH" style="whiteSpace=wrap;html=1;arcSize=12;fillColor=#FFE45E;strokeColor=#FF6392;fontColor=#5AA9E6;rounded=1;" parent="1" vertex="1">
                    <mxGeometry x="490" y="140" width="120" height="60" as="geometry"/>
                </mxCell>
                <mxCell id="12" value="Pollen Assimilation" style="text;html=1;resizable=0;autosize=1;align=center;verticalAlign=middle;points=[];rounded=0;fontSize=32;strokeColor=#f0f0f0;perimeterSpacing=0;" parent="1" vertex="1">
                    <mxGeometry x="390" y="40" width="280" height="40" as="geometry"/>
                </mxCell>
                <mxCell id="13" value="No additional data during forecast" style="whiteSpace=wrap;html=1;rounded=1;fontColor=#5AA9E6;strokeColor=#FF6392;fillColor=#FFE45E;arcSize=12;" parent="1" vertex="1">
                    <mxGeometry x="680" y="280" width="120" height="60" as="geometry"/>
                </mxCell>
                <mxCell id="18" value="Every Full Hour&lt;br&gt;ntstep == 0" style="shape=flexArrow;endArrow=classic;html=1;endWidth=23;endSize=6.24;width=9;labelBackgroundColor=none;horizontal=1;strokeColor=#FF6392;fontColor=#5AA9E6;entryX=0;entryY=0.75;entryDx=0;entryDy=0;" edge="1" parent="1" target="2">
                    <mxGeometry x="-0.1342" y="30" width="50" height="50" relative="1" as="geometry">
                        <mxPoint x="370" y="360" as="sourcePoint"/>
                        <mxPoint x="490" y="310" as="targetPoint"/>
                        <mxPoint as="offset"/>
                    </mxGeometry>
                </mxCell>
                <mxCell id="19" value="Overwrite:&lt;br&gt;Fcst ATAB File 24h&lt;br&gt;Fcst ATAB File 120h" style="whiteSpace=wrap;html=1;fillColor=#FFE45E;strokeColor=#FF6392;fontColor=#5AA9E6;rounded=1;" vertex="1" parent="1">
                    <mxGeometry x="250" y="354" width="120" height="60" as="geometry"/>
                </mxCell>
                <mxCell id="20" value="CRON Job&lt;br&gt;Fieldextra&lt;br&gt;Hourly Retrieval&lt;br&gt;for each species" style="shape=flexArrow;endArrow=classic;html=1;endWidth=23;endSize=6.24;width=9;labelBackgroundColor=none;horizontal=1;exitX=0;exitY=0.5;exitDx=0;exitDy=0;strokeColor=#FF6392;fontColor=#5AA9E6;entryX=1;entryY=1;entryDx=0;entryDy=0;" edge="1" parent="1" source="21" target="19">
                    <mxGeometry x="-0.1743" y="36" width="50" height="50" relative="1" as="geometry">
                        <mxPoint x="355" y="480" as="sourcePoint"/>
                        <mxPoint x="380" y="370" as="targetPoint"/>
                        <mxPoint as="offset"/>
                    </mxGeometry>
                </mxCell>
                <mxCell id="21" value="KENDA-1 Archive" style="whiteSpace=wrap;html=1;arcSize=12;fillColor=#FFE45E;strokeColor=#FF6392;fontColor=#5AA9E6;rounded=1;" vertex="1" parent="1">
                    <mxGeometry x="490" y="420" width="120" height="60" as="geometry"/>
                </mxCell>
            </root>
        </mxGraphModel>
    </diagram>
</mxfile>